<svg width="100" height="100" viewBox="0 0 100 100" fill="none" xmlns="http://www.w3.org/2000/svg">
  <path d="M49.4998 9C39.6456 9.00041 30.1131 12.5526 22.6079 19.021C15.1027 25.4893 10.1145 34.4518 8.53601 44.3047C6.9575 54.1576 8.8916 64.2579 13.9923 72.7985C19.0929 81.3391 27.0273 87.7625 36.3756 90.9195C38.4506 91.2874 39.2287 90.0264 39.2287 88.9228C39.2287 87.9244 39.1768 84.614 39.1768 81.0934C28.75 83.0376 26.0525 78.5188 25.2225 76.1542C24.3015 73.8545 22.8416 71.8165 20.9688 70.2164C19.5163 69.4282 17.4413 67.484 20.9169 67.4315C22.244 67.5774 23.5168 68.0451 24.6275 68.7952C25.7382 69.5452 26.6541 70.5554 27.2975 71.7402C27.8651 72.773 28.6283 73.6822 29.5434 74.4158C30.4585 75.1493 31.5075 75.6928 32.6303 76.0149C33.7531 76.3371 34.9277 76.4317 36.0866 76.2932C37.2456 76.1548 38.3662 75.7861 39.3842 75.2082C39.5638 73.0711 40.5041 71.073 42.0299 69.5859C32.7962 68.535 23.1475 64.9091 23.1475 48.8302C23.0892 44.6523 24.6111 40.6102 27.4012 37.5327C26.1325 33.9017 26.281 29.9168 27.8162 26.3929C27.8162 26.3929 31.2917 25.2894 39.2286 30.7017C46.0192 28.8099 53.1879 28.8099 59.9785 30.7017C67.9152 25.2369 71.3909 26.3929 71.3909 26.3929C72.9264 29.9168 73.0748 33.9017 71.8059 37.5327C74.6044 40.6049 76.1277 44.6506 76.0596 48.8302C76.0596 64.9617 66.359 68.535 57.1254 69.5859C58.1158 70.6027 58.8786 71.8235 59.3619 73.1654C59.8452 74.5073 60.0378 75.9388 59.9266 77.3628C59.9266 82.9853 59.8747 87.5041 59.8747 88.9229C59.8747 90.0264 60.6528 91.3401 62.7278 90.9197C72.0597 87.7369 79.9713 81.2984 85.0502 72.7535C90.1291 64.2086 92.0448 54.1134 90.4554 44.27C88.8659 34.4267 83.8747 25.4759 76.3728 19.0154C68.8709 12.5549 59.3465 9.00519 49.4998 9Z" fill="black" fill-opacity="0.2"/>
</svg>
